<?xml version="1.0" encoding="UTF-8" standalone="no"?>
<!DOCTYPE svg PUBLIC "-//W3C//DTD SVG 1.1//EN"
 "http://www.w3.org/Graphics/SVG/1.1/DTD/svg11.dtd">
<!-- Generated by graphviz version 2.43.0 (0)
 -->
<!-- Title: G Pages: 1 -->
<svg width="6416pt" height="44pt"
 viewBox="0.00 0.00 6416.00 44.00" xmlns="http://www.w3.org/2000/svg" xmlns:xlink="http://www.w3.org/1999/xlink">
<g id="graph0" class="graph" transform="scale(1 1) rotate(0) translate(4 40)">
<title>G</title>
<polygon fill="white" stroke="transparent" points="-4,4 -4,-40 6412,-40 6412,4 -4,4"/>
<!-- RAwcS7tG&#45;K -->
<g id="node1" class="node">
<title>RAwcS7tG&#45;K</title>
<polygon fill="blue" stroke="black" points="36,-36 0,-36 0,0 36,0 36,-36"/>
</g>
<!-- RAM0AF2wYX -->
<g id="node2" class="node">
<title>RAM0AF2wYX</title>
<polygon fill="blue" stroke="black" points="90,-36 54,-36 54,0 90,0 90,-36"/>
</g>
<!-- RAQTRlVBNl -->
<g id="node3" class="node">
<title>RAQTRlVBNl</title>
<polygon fill="blue" stroke="black" points="144,-36 108,-36 108,0 144,0 144,-36"/>
</g>
<!-- RAZdY&#45;Wdpm -->
<g id="node4" class="node">
<title>RAZdY&#45;Wdpm</title>
<polygon fill="blue" stroke="black" points="198,-36 162,-36 162,0 198,0 198,-36"/>
</g>
<!-- RA9jFuc0wO -->
<g id="node5" class="node">
<title>RA9jFuc0wO</title>
<polygon fill="blue" stroke="black" points="252,-36 216,-36 216,0 252,0 252,-36"/>
</g>
<!-- RAZILddOsb -->
<g id="node6" class="node">
<title>RAZILddOsb</title>
<polygon fill="blue" stroke="black" points="306,-36 270,-36 270,0 306,0 306,-36"/>
</g>
<!-- RAS&#45;uQZear -->
<g id="node7" class="node">
<title>RAS&#45;uQZear</title>
<polygon fill="blue" stroke="black" points="360,-36 324,-36 324,0 360,0 360,-36"/>
</g>
<!-- RAv2_GJH4P -->
<g id="node8" class="node">
<title>RAv2_GJH4P</title>
<polygon fill="blue" stroke="black" points="414,-36 378,-36 378,0 414,0 414,-36"/>
</g>
<!-- RAs&#45;odsHvz -->
<g id="node9" class="node">
<title>RAs&#45;odsHvz</title>
<polygon fill="blue" stroke="black" points="468,-36 432,-36 432,0 468,0 468,-36"/>
</g>
<!-- RAVOvkxhwJ -->
<g id="node10" class="node">
<title>RAVOvkxhwJ</title>
<polygon fill="blue" stroke="black" points="522,-36 486,-36 486,0 522,0 522,-36"/>
</g>
<!-- RA3bgMLuZr -->
<g id="node11" class="node">
<title>RA3bgMLuZr</title>
<polygon fill="blue" stroke="black" points="576,-36 540,-36 540,0 576,0 576,-36"/>
</g>
<!-- RAcOHD6Srp -->
<g id="node12" class="node">
<title>RAcOHD6Srp</title>
<polygon fill="blue" stroke="black" points="630,-36 594,-36 594,0 630,0 630,-36"/>
</g>
<!-- RA3d1wNhyQ -->
<g id="node13" class="node">
<title>RA3d1wNhyQ</title>
<polygon fill="blue" stroke="black" points="684,-36 648,-36 648,0 684,0 684,-36"/>
</g>
<!-- RAE1u4Tgwx -->
<g id="node14" class="node">
<title>RAE1u4Tgwx</title>
<polygon fill="blue" stroke="black" points="738,-36 702,-36 702,0 738,0 738,-36"/>
</g>
<!-- RAfnoWhgpC -->
<g id="node15" class="node">
<title>RAfnoWhgpC</title>
<polygon fill="blue" stroke="black" points="792,-36 756,-36 756,0 792,0 792,-36"/>
</g>
<!-- RArrv081fT -->
<g id="node16" class="node">
<title>RArrv081fT</title>
<polygon fill="blue" stroke="black" points="846,-36 810,-36 810,0 846,0 846,-36"/>
</g>
<!-- RA7e61cJDt -->
<g id="node17" class="node">
<title>RA7e61cJDt</title>
<polygon fill="blue" stroke="black" points="900,-36 864,-36 864,0 900,0 900,-36"/>
</g>
<!-- RATnFOH121 -->
<g id="node18" class="node">
<title>RATnFOH121</title>
<polygon fill="blue" stroke="black" points="954,-36 918,-36 918,0 954,0 954,-36"/>
</g>
<!-- RAU_qtmakL -->
<g id="node19" class="node">
<title>RAU_qtmakL</title>
<polygon fill="blue" stroke="black" points="1008,-36 972,-36 972,0 1008,0 1008,-36"/>
</g>
<!-- RAuw7Fo&#45;S5 -->
<g id="node20" class="node">
<title>RAuw7Fo&#45;S5</title>
<polygon fill="blue" stroke="black" points="1062,-36 1026,-36 1026,0 1062,0 1062,-36"/>
</g>
<!-- RA&#45;PZUIhvh -->
<g id="node21" class="node">
<title>RA&#45;PZUIhvh</title>
<polygon fill="blue" stroke="black" points="1116,-36 1080,-36 1080,0 1116,0 1116,-36"/>
</g>
<!-- RARduGmw6u -->
<g id="node22" class="node">
<title>RARduGmw6u</title>
<polygon fill="blue" stroke="black" points="1170,-36 1134,-36 1134,0 1170,0 1170,-36"/>
</g>
<!-- RAi3F4Zuw8 -->
<g id="node23" class="node">
<title>RAi3F4Zuw8</title>
<polygon fill="blue" stroke="black" points="1224,-36 1188,-36 1188,0 1224,0 1224,-36"/>
</g>
<!-- RAkh8i194_ -->
<g id="node24" class="node">
<title>RAkh8i194_</title>
<polygon fill="blue" stroke="black" points="1278,-36 1242,-36 1242,0 1278,0 1278,-36"/>
</g>
<!-- RAiVA25Dj5 -->
<g id="node25" class="node">
<title>RAiVA25Dj5</title>
<polygon fill="blue" stroke="black" points="1332,-36 1296,-36 1296,0 1332,0 1332,-36"/>
</g>
<!-- RApSKKPqmR -->
<g id="node26" class="node">
<title>RApSKKPqmR</title>
<polygon fill="blue" stroke="black" points="1386,-36 1350,-36 1350,0 1386,0 1386,-36"/>
</g>
<!-- RARu0NIs9z -->
<g id="node27" class="node">
<title>RARu0NIs9z</title>
<polygon fill="blue" stroke="black" points="1440,-36 1404,-36 1404,0 1440,0 1440,-36"/>
</g>
<!-- RAlfwCE&#45;sc -->
<g id="node28" class="node">
<title>RAlfwCE&#45;sc</title>
<polygon fill="blue" stroke="black" points="1494,-36 1458,-36 1458,0 1494,0 1494,-36"/>
</g>
<!-- RAorOLuZlf -->
<g id="node29" class="node">
<title>RAorOLuZlf</title>
<polygon fill="blue" stroke="black" points="1548,-36 1512,-36 1512,0 1548,0 1548,-36"/>
</g>
<!-- RAYaSkoABa -->
<g id="node30" class="node">
<title>RAYaSkoABa</title>
<polygon fill="blue" stroke="black" points="1602,-36 1566,-36 1566,0 1602,0 1602,-36"/>
</g>
<!-- RAcEWBk7k2 -->
<g id="node31" class="node">
<title>RAcEWBk7k2</title>
<polygon fill="blue" stroke="black" points="1656,-36 1620,-36 1620,0 1656,0 1656,-36"/>
</g>
<!-- RAXC23M6Pu -->
<g id="node32" class="node">
<title>RAXC23M6Pu</title>
<polygon fill="blue" stroke="black" points="1710,-36 1674,-36 1674,0 1710,0 1710,-36"/>
</g>
<!-- RAryFiNK2x -->
<g id="node33" class="node">
<title>RAryFiNK2x</title>
<polygon fill="blue" stroke="black" points="1764,-36 1728,-36 1728,0 1764,0 1764,-36"/>
</g>
<!-- RAIBpY3_Ob -->
<g id="node34" class="node">
<title>RAIBpY3_Ob</title>
<polygon fill="blue" stroke="black" points="1818,-36 1782,-36 1782,0 1818,0 1818,-36"/>
</g>
<!-- RA4ecYBb3W -->
<g id="node35" class="node">
<title>RA4ecYBb3W</title>
<polygon fill="blue" stroke="black" points="1872,-36 1836,-36 1836,0 1872,0 1872,-36"/>
</g>
<!-- RA_piT7JTF -->
<g id="node36" class="node">
<title>RA_piT7JTF</title>
<polygon fill="blue" stroke="black" points="1926,-36 1890,-36 1890,0 1926,0 1926,-36"/>
</g>
<!-- RA0Ak_exio -->
<g id="node37" class="node">
<title>RA0Ak_exio</title>
<polygon fill="blue" stroke="black" points="1980,-36 1944,-36 1944,0 1980,0 1980,-36"/>
</g>
<!-- RAXdkg1ssT -->
<g id="node38" class="node">
<title>RAXdkg1ssT</title>
<polygon fill="blue" stroke="black" points="2034,-36 1998,-36 1998,0 2034,0 2034,-36"/>
</g>
<!-- RA0LO7yFU6 -->
<g id="node39" class="node">
<title>RA0LO7yFU6</title>
<polygon fill="blue" stroke="black" points="2088,-36 2052,-36 2052,0 2088,0 2088,-36"/>
</g>
<!-- RAio&#45;&#45;7IbP -->
<g id="node40" class="node">
<title>RAio&#45;&#45;7IbP</title>
<polygon fill="blue" stroke="black" points="2142,-36 2106,-36 2106,0 2142,0 2142,-36"/>
</g>
<!-- RAR3HGoKQM -->
<g id="node41" class="node">
<title>RAR3HGoKQM</title>
<polygon fill="blue" stroke="black" points="2196,-36 2160,-36 2160,0 2196,0 2196,-36"/>
</g>
<!-- RAmXsR4TSI -->
<g id="node42" class="node">
<title>RAmXsR4TSI</title>
<polygon fill="blue" stroke="black" points="2250,-36 2214,-36 2214,0 2250,0 2250,-36"/>
</g>
<!-- RAEo0vVJDl -->
<g id="node43" class="node">
<title>RAEo0vVJDl</title>
<polygon fill="blue" stroke="black" points="2304,-36 2268,-36 2268,0 2304,0 2304,-36"/>
</g>
<!-- RAGfzz5T3p -->
<g id="node44" class="node">
<title>RAGfzz5T3p</title>
<polygon fill="blue" stroke="black" points="2358,-36 2322,-36 2322,0 2358,0 2358,-36"/>
</g>
<!-- RAXqhZNkCt -->
<g id="node45" class="node">
<title>RAXqhZNkCt</title>
<polygon fill="blue" stroke="black" points="2412,-36 2376,-36 2376,0 2412,0 2412,-36"/>
</g>
<!-- RAXViOb_BV -->
<g id="node46" class="node">
<title>RAXViOb_BV</title>
<polygon fill="blue" stroke="black" points="2466,-36 2430,-36 2430,0 2466,0 2466,-36"/>
</g>
<!-- RA38HSbTw9 -->
<g id="node47" class="node">
<title>RA38HSbTw9</title>
<polygon fill="blue" stroke="black" points="2520,-36 2484,-36 2484,0 2520,0 2520,-36"/>
</g>
<!-- RAopcyinEZ -->
<g id="node48" class="node">
<title>RAopcyinEZ</title>
<polygon fill="blue" stroke="black" points="2574,-36 2538,-36 2538,0 2574,0 2574,-36"/>
</g>
<!-- RAug&#45;T7pRS -->
<g id="node49" class="node">
<title>RAug&#45;T7pRS</title>
<polygon fill="blue" stroke="black" points="2628,-36 2592,-36 2592,0 2628,0 2628,-36"/>
</g>
<!-- RAQh4gyQCc -->
<g id="node50" class="node">
<title>RAQh4gyQCc</title>
<polygon fill="blue" stroke="black" points="2682,-36 2646,-36 2646,0 2682,0 2682,-36"/>
</g>
<!-- RALWxVELKu -->
<g id="node51" class="node">
<title>RALWxVELKu</title>
<polygon fill="blue" stroke="black" points="2736,-36 2700,-36 2700,0 2736,0 2736,-36"/>
</g>
<!-- RAm04lBKr6 -->
<g id="node52" class="node">
<title>RAm04lBKr6</title>
<polygon fill="blue" stroke="black" points="2790,-36 2754,-36 2754,0 2790,0 2790,-36"/>
</g>
<!-- RAlbgqbDxG -->
<g id="node53" class="node">
<title>RAlbgqbDxG</title>
<polygon fill="blue" stroke="black" points="2844,-36 2808,-36 2808,0 2844,0 2844,-36"/>
</g>
<!-- RAx9yefsz4 -->
<g id="node54" class="node">
<title>RAx9yefsz4</title>
<polygon fill="blue" stroke="black" points="2898,-36 2862,-36 2862,0 2898,0 2898,-36"/>
</g>
<!-- RAS1chwiFR -->
<g id="node55" class="node">
<title>RAS1chwiFR</title>
<polygon fill="blue" stroke="black" points="2952,-36 2916,-36 2916,0 2952,0 2952,-36"/>
</g>
<!-- RAgOEyseOA -->
<g id="node56" class="node">
<title>RAgOEyseOA</title>
<polygon fill="blue" stroke="black" points="3006,-36 2970,-36 2970,0 3006,0 3006,-36"/>
</g>
<!-- RA9B6Vj6uE -->
<g id="node57" class="node">
<title>RA9B6Vj6uE</title>
<polygon fill="blue" stroke="black" points="3060,-36 3024,-36 3024,0 3060,0 3060,-36"/>
</g>
<!-- RAPEhX9hEJ -->
<g id="node58" class="node">
<title>RAPEhX9hEJ</title>
<polygon fill="blue" stroke="black" points="3114,-36 3078,-36 3078,0 3114,0 3114,-36"/>
</g>
<!-- RAnF0KQ5CG -->
<g id="node59" class="node">
<title>RAnF0KQ5CG</title>
<polygon fill="blue" stroke="black" points="3168,-36 3132,-36 3132,0 3168,0 3168,-36"/>
</g>
<!-- RAtxvhGFng -->
<g id="node60" class="node">
<title>RAtxvhGFng</title>
<polygon fill="blue" stroke="black" points="3222,-36 3186,-36 3186,0 3222,0 3222,-36"/>
</g>
<!-- RAw0HUK3Jg -->
<g id="node61" class="node">
<title>RAw0HUK3Jg</title>
<polygon fill="blue" stroke="black" points="3276,-36 3240,-36 3240,0 3276,0 3276,-36"/>
</g>
<!-- RA9liKqSCn -->
<g id="node62" class="node">
<title>RA9liKqSCn</title>
<polygon fill="blue" stroke="black" points="3330,-36 3294,-36 3294,0 3330,0 3330,-36"/>
</g>
<!-- RA6gx8VCH_ -->
<g id="node63" class="node">
<title>RA6gx8VCH_</title>
<polygon fill="blue" stroke="black" points="3384,-36 3348,-36 3348,0 3384,0 3384,-36"/>
</g>
<!-- RAOQfDNyP0 -->
<g id="node64" class="node">
<title>RAOQfDNyP0</title>
<polygon fill="blue" stroke="black" points="3438,-36 3402,-36 3402,0 3438,0 3438,-36"/>
</g>
<!-- RAIolZf0Ko -->
<g id="node65" class="node">
<title>RAIolZf0Ko</title>
<polygon fill="blue" stroke="black" points="3492,-36 3456,-36 3456,0 3492,0 3492,-36"/>
</g>
<!-- RAaFeW4Bj3 -->
<g id="node66" class="node">
<title>RAaFeW4Bj3</title>
<polygon fill="blue" stroke="black" points="3546,-36 3510,-36 3510,0 3546,0 3546,-36"/>
</g>
<!-- RAy&#45;yPfCs1 -->
<g id="node67" class="node">
<title>RAy&#45;yPfCs1</title>
<polygon fill="blue" stroke="black" points="3600,-36 3564,-36 3564,0 3600,0 3600,-36"/>
</g>
<!-- RAOaHjJf_7 -->
<g id="node68" class="node">
<title>RAOaHjJf_7</title>
<polygon fill="blue" stroke="black" points="3654,-36 3618,-36 3618,0 3654,0 3654,-36"/>
</g>
<!-- RA157Nzn31 -->
<g id="node69" class="node">
<title>RA157Nzn31</title>
<polygon fill="blue" stroke="black" points="3708,-36 3672,-36 3672,0 3708,0 3708,-36"/>
</g>
<!-- RAGIam9RdG -->
<g id="node70" class="node">
<title>RAGIam9RdG</title>
<polygon fill="blue" stroke="black" points="3762,-36 3726,-36 3726,0 3762,0 3762,-36"/>
</g>
<!-- RAmxClZM36 -->
<g id="node71" class="node">
<title>RAmxClZM36</title>
<polygon fill="blue" stroke="black" points="3816,-36 3780,-36 3780,0 3816,0 3816,-36"/>
</g>
<!-- RAhoOM0_Pn -->
<g id="node72" class="node">
<title>RAhoOM0_Pn</title>
<polygon fill="blue" stroke="black" points="3870,-36 3834,-36 3834,0 3870,0 3870,-36"/>
</g>
<!-- RAhyiHbc_7 -->
<g id="node73" class="node">
<title>RAhyiHbc_7</title>
<polygon fill="blue" stroke="black" points="3924,-36 3888,-36 3888,0 3924,0 3924,-36"/>
</g>
<!-- RA&#45;miPrNdy -->
<g id="node74" class="node">
<title>RA&#45;miPrNdy</title>
<polygon fill="blue" stroke="black" points="3978,-36 3942,-36 3942,0 3978,0 3978,-36"/>
</g>
<!-- RA4zu3y98z -->
<g id="node75" class="node">
<title>RA4zu3y98z</title>
<polygon fill="blue" stroke="black" points="4032,-36 3996,-36 3996,0 4032,0 4032,-36"/>
</g>
<!-- RAa0IEe29L -->
<g id="node76" class="node">
<title>RAa0IEe29L</title>
<polygon fill="blue" stroke="black" points="4086,-36 4050,-36 4050,0 4086,0 4086,-36"/>
</g>
<!-- RAEXBWB39Z -->
<g id="node77" class="node">
<title>RAEXBWB39Z</title>
<polygon fill="blue" stroke="black" points="4140,-36 4104,-36 4104,0 4140,0 4140,-36"/>
</g>
<!-- RAnghJFLSo -->
<g id="node78" class="node">
<title>RAnghJFLSo</title>
<polygon fill="blue" stroke="black" points="4194,-36 4158,-36 4158,0 4194,0 4194,-36"/>
</g>
<!-- RA9RcAQhZ9 -->
<g id="node79" class="node">
<title>RA9RcAQhZ9</title>
<polygon fill="blue" stroke="black" points="4248,-36 4212,-36 4212,0 4248,0 4248,-36"/>
</g>
<!-- RAkEKGauZL -->
<g id="node80" class="node">
<title>RAkEKGauZL</title>
<polygon fill="blue" stroke="black" points="4302,-36 4266,-36 4266,0 4302,0 4302,-36"/>
</g>
<!-- RAkE7yrMj7 -->
<g id="node81" class="node">
<title>RAkE7yrMj7</title>
<polygon fill="blue" stroke="black" points="4356,-36 4320,-36 4320,0 4356,0 4356,-36"/>
</g>
<!-- RAnb5&#45;OisR -->
<g id="node82" class="node">
<title>RAnb5&#45;OisR</title>
<polygon fill="blue" stroke="black" points="4410,-36 4374,-36 4374,0 4410,0 4410,-36"/>
</g>
<!-- RAFMU1Z7kx -->
<g id="node83" class="node">
<title>RAFMU1Z7kx</title>
<polygon fill="blue" stroke="black" points="4464,-36 4428,-36 4428,0 4464,0 4464,-36"/>
</g>
<!-- RA9KmNH&#45;j6 -->
<g id="node84" class="node">
<title>RA9KmNH&#45;j6</title>
<polygon fill="blue" stroke="black" points="4518,-36 4482,-36 4482,0 4518,0 4518,-36"/>
</g>
<!-- RAulb_vr2Z -->
<g id="node85" class="node">
<title>RAulb_vr2Z</title>
<polygon fill="blue" stroke="black" points="4572,-36 4536,-36 4536,0 4572,0 4572,-36"/>
</g>
<!-- RAz&#45;E7YOwL -->
<g id="node86" class="node">
<title>RAz&#45;E7YOwL</title>
<polygon fill="blue" stroke="black" points="4626,-36 4590,-36 4590,0 4626,0 4626,-36"/>
</g>
<!-- RAZQ8pshLD -->
<g id="node87" class="node">
<title>RAZQ8pshLD</title>
<polygon fill="blue" stroke="black" points="4680,-36 4644,-36 4644,0 4680,0 4680,-36"/>
</g>
<!-- RAOBLvwlzr -->
<g id="node88" class="node">
<title>RAOBLvwlzr</title>
<polygon fill="blue" stroke="black" points="4734,-36 4698,-36 4698,0 4734,0 4734,-36"/>
</g>
<!-- RAFiUTEjer -->
<g id="node89" class="node">
<title>RAFiUTEjer</title>
<polygon fill="blue" stroke="black" points="4788,-36 4752,-36 4752,0 4788,0 4788,-36"/>
</g>
<!-- RACefo&#45;6H6 -->
<g id="node90" class="node">
<title>RACefo&#45;6H6</title>
<polygon fill="blue" stroke="black" points="4842,-36 4806,-36 4806,0 4842,0 4842,-36"/>
</g>
<!-- RAkjk3apcZ -->
<g id="node91" class="node">
<title>RAkjk3apcZ</title>
<polygon fill="blue" stroke="black" points="4896,-36 4860,-36 4860,0 4896,0 4896,-36"/>
</g>
<!-- RAvKVAhQ4K -->
<g id="node92" class="node">
<title>RAvKVAhQ4K</title>
<polygon fill="blue" stroke="black" points="4950,-36 4914,-36 4914,0 4950,0 4950,-36"/>
</g>
<!-- RAx9CGRhae -->
<g id="node93" class="node">
<title>RAx9CGRhae</title>
<polygon fill="blue" stroke="black" points="5004,-36 4968,-36 4968,0 5004,0 5004,-36"/>
</g>
<!-- RARw63N4Sh -->
<g id="node94" class="node">
<title>RARw63N4Sh</title>
<polygon fill="blue" stroke="black" points="5058,-36 5022,-36 5022,0 5058,0 5058,-36"/>
</g>
<!-- RASUNuFag1 -->
<g id="node95" class="node">
<title>RASUNuFag1</title>
<polygon fill="blue" stroke="black" points="5112,-36 5076,-36 5076,0 5112,0 5112,-36"/>
</g>
<!-- RA0AMmdDvY -->
<g id="node96" class="node">
<title>RA0AMmdDvY</title>
<polygon fill="blue" stroke="black" points="5166,-36 5130,-36 5130,0 5166,0 5166,-36"/>
</g>
<!-- RAl1q8Wcan -->
<g id="node97" class="node">
<title>RAl1q8Wcan</title>
<polygon fill="blue" stroke="black" points="5220,-36 5184,-36 5184,0 5220,0 5220,-36"/>
</g>
<!-- RALbwlXSd3 -->
<g id="node98" class="node">
<title>RALbwlXSd3</title>
<polygon fill="blue" stroke="black" points="5274,-36 5238,-36 5238,0 5274,0 5274,-36"/>
</g>
<!-- RA7k6cVTww -->
<g id="node99" class="node">
<title>RA7k6cVTww</title>
<polygon fill="blue" stroke="black" points="5328,-36 5292,-36 5292,0 5328,0 5328,-36"/>
</g>
<!-- RAqj2d3QxM -->
<g id="node100" class="node">
<title>RAqj2d3QxM</title>
<polygon fill="blue" stroke="black" points="5382,-36 5346,-36 5346,0 5382,0 5382,-36"/>
</g>
<!-- RAeSpvWpda -->
<g id="node101" class="node">
<title>RAeSpvWpda</title>
<polygon fill="blue" stroke="black" points="5436,-36 5400,-36 5400,0 5436,0 5436,-36"/>
</g>
<!-- node1 -->
<g id="node102" class="node">
<title>node1</title>
<polygon fill="lightgrey" stroke="black" points="5490,-36 5454,-36 5454,0 5490,0 5490,-36"/>
</g>
<!-- rel -->
<g id="node103" class="node">
<title>rel</title>
<polygon fill="lightgrey" stroke="black" points="5544,-36 5508,-36 5508,0 5544,0 5544,-36"/>
</g>
<!-- node2 -->
<g id="node104" class="node">
<title>node2</title>
<polygon fill="lightgrey" stroke="black" points="5598,-36 5562,-36 5562,0 5598,0 5598,-36"/>
</g>
<!-- RATc9O9tCd -->
<g id="node105" class="node">
<title>RATc9O9tCd</title>
<polygon fill="red" stroke="black" points="5652,-36 5616,-36 5616,0 5652,0 5652,-36"/>
</g>
<!-- RAmfrSLt&#45;W -->
<g id="node106" class="node">
<title>RAmfrSLt&#45;W</title>
<polygon fill="red" stroke="black" points="5706,-36 5670,-36 5670,0 5706,0 5706,-36"/>
</g>
<!-- RAGo62Hb_B -->
<g id="node107" class="node">
<title>RAGo62Hb_B</title>
<polygon fill="red" stroke="black" points="5760,-36 5724,-36 5724,0 5760,0 5760,-36"/>
</g>
<!-- RAWcrMY8mn -->
<g id="node108" class="node">
<title>RAWcrMY8mn</title>
<polygon fill="red" stroke="black" points="5814,-36 5778,-36 5778,0 5814,0 5814,-36"/>
</g>
<!-- RAGgV&#45;nRMW -->
<g id="node109" class="node">
<title>RAGgV&#45;nRMW</title>
<polygon fill="red" stroke="black" points="5868,-36 5832,-36 5832,0 5868,0 5868,-36"/>
</g>
<!-- RAsdV8EQ1q -->
<g id="node110" class="node">
<title>RAsdV8EQ1q</title>
<polygon fill="red" stroke="black" points="5922,-36 5886,-36 5886,0 5922,0 5922,-36"/>
</g>
<!-- RAIWvdnjqm -->
<g id="node111" class="node">
<title>RAIWvdnjqm</title>
<polygon fill="red" stroke="black" points="5976,-36 5940,-36 5940,0 5976,0 5976,-36"/>
</g>
<!-- RAPLWOEA5t -->
<g id="node112" class="node">
<title>RAPLWOEA5t</title>
<polygon fill="red" stroke="black" points="6030,-36 5994,-36 5994,0 6030,0 6030,-36"/>
</g>
<!-- RASZZ5T1Ca -->
<g id="node113" class="node">
<title>RASZZ5T1Ca</title>
<polygon fill="red" stroke="black" points="6084,-36 6048,-36 6048,0 6084,0 6084,-36"/>
</g>
<!-- RAxxJWyH8O -->
<g id="node114" class="node">
<title>RAxxJWyH8O</title>
<polygon fill="red" stroke="black" points="6138,-36 6102,-36 6102,0 6138,0 6138,-36"/>
</g>
<!-- RAjk3YoNyd -->
<g id="node115" class="node">
<title>RAjk3YoNyd</title>
<polygon fill="red" stroke="black" points="6192,-36 6156,-36 6156,0 6192,0 6192,-36"/>
</g>
<!-- RA2JlYTWhC -->
<g id="node116" class="node">
<title>RA2JlYTWhC</title>
<polygon fill="red" stroke="black" points="6246,-36 6210,-36 6210,0 6246,0 6246,-36"/>
</g>
<!-- RAYJe1ruxz -->
<g id="node117" class="node">
<title>RAYJe1ruxz</title>
<polygon fill="red" stroke="black" points="6300,-36 6264,-36 6264,0 6300,0 6300,-36"/>
</g>
<!-- RAWCmrfeUU -->
<g id="node118" class="node">
<title>RAWCmrfeUU</title>
<polygon fill="red" stroke="black" points="6354,-36 6318,-36 6318,0 6354,0 6354,-36"/>
</g>
<!-- RA5rRFy9eD -->
<g id="node119" class="node">
<title>RA5rRFy9eD</title>
<polygon fill="red" stroke="black" points="6408,-36 6372,-36 6372,0 6408,0 6408,-36"/>
</g>
</g>
</svg>
